<svg width="15" height="15" viewBox="0 0 15 15" fill="none" xmlns="http://www.w3.org/2000/svg">
<path fill-rule="evenodd" clip-rule="evenodd" d="M11.0158 14.9756C9.93581 14.9358 6.87506 14.5128 3.66956 11.3081C0.464807 8.10258 0.0425565 5.04258 0.0020565 3.96183C-0.0579435 2.31483 1.20356 0.715083 2.66081 0.0903331C2.83629 0.0145582 3.02846 -0.0142915 3.21845 0.0066147C3.40845 0.0275209 3.58975 0.0974648 3.74456 0.209583C4.94456 1.08408 5.77256 2.40708 6.48356 3.44733C6.63999 3.67588 6.70688 3.95399 6.67147 4.22868C6.63607 4.50337 6.50084 4.75543 6.29156 4.93683L4.82831 6.02358C4.75761 6.07463 4.70785 6.1496 4.68826 6.23458C4.66868 6.31955 4.6806 6.40874 4.72181 6.48558C5.05331 7.08783 5.64281 7.98483 6.31781 8.65983C6.99356 9.33483 7.93256 9.96333 8.57681 10.3323C8.65758 10.3777 8.75266 10.3904 8.8425 10.3678C8.93233 10.3452 9.0101 10.289 9.05981 10.2108L10.0123 8.76108C10.1874 8.52847 10.4458 8.37263 10.7332 8.32622C11.0206 8.2798 11.3149 8.34641 11.5543 8.51208C12.6096 9.24258 13.8411 10.0563 14.7426 11.2106C14.8638 11.3665 14.9409 11.5521 14.9658 11.7481C14.9908 11.944 14.9626 12.143 14.8843 12.3243C14.2566 13.7891 12.6681 15.0363 11.0158 14.9756Z" fill="#0F253B"/>
</svg>
