<svg width="64" height="64" viewBox="0 0 64 64" fill="none" xmlns="http://www.w3.org/2000/svg">
<path d="M32 4C24.6017 4.08926 17.5315 7.06791 12.2997 12.2997C7.06791 17.5315 4.08926 24.6017 4 32C4.08926 39.3983 7.06791 46.4685 12.2997 51.7003C17.5315 56.9321 24.6017 59.9107 32 60C39.3983 59.9107 46.4685 56.9321 51.7003 51.7003C56.9321 46.4685 59.9107 39.3983 60 32C59.9107 24.6017 56.9321 17.5315 51.7003 12.2997C46.4685 7.06791 39.3983 4.08926 32 4ZM48 34H34V48H30V34H16V30H30V16H34V30H48V34Z" fill="#3B95ED"/>
</svg>
