<svg width="20" height="18" viewBox="0 0 20 18" fill="none" xmlns="http://www.w3.org/2000/svg">
<path d="M19.2143 6.156C18.7123 4.95835 17.9846 3.87024 17.0714 2.952C16.1605 2.03154 15.081 1.29799 13.8929 0.792C12.6585 0.2655 11.3504 0 10 0C8.64955 0 7.34152 0.2655 6.10714 0.792C4.91899 1.29799 3.83952 2.03154 2.92857 2.952C2.01542 3.87024 1.28769 4.95835 0.785714 6.156C0.263393 7.40025 0 8.71875 0 10.08C0 13.0658 1.30134 15.8783 3.5692 17.7997L3.60714 17.8313C3.73661 17.9393 3.89955 18 4.06696 18H15.9353C16.1027 18 16.2656 17.9393 16.3951 17.8313L16.433 17.7997C18.6987 15.8783 20 13.0658 20 10.08C20 8.71875 19.7344 7.40025 19.2143 6.156ZM9.33036 2.7C9.33036 2.601 9.41071 2.52 9.50893 2.52H10.4911C10.5893 2.52 10.6696 2.601 10.6696 2.7V4.5C10.6696 4.599 10.5893 4.68 10.4911 4.68H9.50893C9.41071 4.68 9.33036 4.599 9.33036 4.5V2.7ZM4.59821 10.575C4.59821 10.674 4.51786 10.755 4.41964 10.755H2.63393C2.53571 10.755 2.45536 10.674 2.45536 10.575V9.585C2.45536 9.486 2.53571 9.405 2.63393 9.405H4.41964C4.51786 9.405 4.59821 9.486 4.59821 9.585V10.575ZM6.62277 5.97375L5.92857 6.6735C5.89501 6.707 5.84969 6.72579 5.80246 6.72579C5.75522 6.72579 5.7099 6.707 5.67634 6.6735L4.41295 5.4C4.37971 5.36617 4.36107 5.32048 4.36107 5.27288C4.36107 5.22527 4.37971 5.17958 4.41295 5.14575L5.10714 4.446C5.17634 4.37625 5.29018 4.37625 5.35938 4.446L6.62277 5.7195C6.69196 5.78925 6.69196 5.904 6.62277 5.97375ZM13.1205 7.85475L11.2344 9.756C11.346 10.1768 11.2388 10.6425 10.9107 10.9733C10.7947 11.0904 10.6569 11.1833 10.5053 11.2468C10.3536 11.3102 10.191 11.3428 10.0268 11.3428C9.86258 11.3428 9.69999 11.3102 9.54831 11.2468C9.39664 11.1833 9.25886 11.0904 9.14286 10.9733C9.02664 10.8563 8.93443 10.7174 8.87152 10.5646C8.80861 10.4117 8.77623 10.2478 8.77623 10.0822C8.77623 9.91673 8.80861 9.75284 8.87152 9.59995C8.93443 9.44706 9.02664 9.30818 9.14286 9.19125C9.29785 9.03455 9.49113 8.92186 9.70316 8.86457C9.9152 8.80729 10.1385 8.80744 10.3504 8.865L12.2366 6.96375C12.3058 6.894 12.4196 6.894 12.4888 6.96375L13.1205 7.6005C13.1897 7.67025 13.1897 7.78275 13.1205 7.85475ZM14.0804 6.67575L13.3862 5.976C13.3529 5.94217 13.3343 5.89648 13.3343 5.84888C13.3343 5.80127 13.3529 5.75558 13.3862 5.72175L14.6496 4.44825C14.7188 4.3785 14.8326 4.3785 14.9018 4.44825L15.596 5.148C15.6652 5.21775 15.6652 5.3325 15.596 5.40225L14.3326 6.67575C14.299 6.70925 14.2537 6.72804 14.2065 6.72804C14.1592 6.72804 14.1139 6.70925 14.0804 6.67575ZM17.4554 10.575C17.4554 10.674 17.375 10.755 17.2768 10.755H15.4911C15.3929 10.755 15.3125 10.674 15.3125 10.575V9.585C15.3125 9.486 15.3929 9.405 15.4911 9.405H17.2768C17.375 9.405 17.4554 9.486 17.4554 9.585V10.575Z" fill="white"/>
</svg>
