<svg width="18" height="18" viewBox="0 0 18 18" fill="none" xmlns="http://www.w3.org/2000/svg">
<path d="M11.625 14.9438L8.4375 11.7563L9.4875 10.7063L11.625 12.8438L15.8625 8.60625L16.9125 9.65625L11.625 14.9438ZM15.75 7.5H14.25V3.75H12.75V6H5.25V3.75H3.75V14.25H8.25V15.75H2.25V2.25H6.88125C7.01875 1.8125 7.2875 1.453 7.6875 1.1715C8.0875 0.890001 8.525 0.749501 9 0.750001C9.5 0.750001 9.947 0.890751 10.341 1.17225C10.735 1.45375 11.0005 1.813 11.1375 2.25H15.75V7.5ZM9 3.75C9.2125 3.75 9.39075 3.678 9.53475 3.534C9.67875 3.39 9.7505 3.212 9.75 3C9.75 2.7875 9.678 2.60925 9.534 2.46525C9.39 2.32125 9.212 2.2495 9 2.25C8.7875 2.25 8.60925 2.322 8.46525 2.466C8.32125 2.61 8.2495 2.788 8.25 3C8.25 3.2125 8.322 3.39075 8.466 3.53475C8.61 3.67875 8.788 3.7505 9 3.75Z" fill="white"/>
</svg>
