<svg width="19" height="19" viewBox="0 0 19 19" fill="none" xmlns="http://www.w3.org/2000/svg">
<path d="M1.05556 19C0.756481 19 0.505963 18.848 0.304 18.544C0.101333 18.2411 0 17.8653 0 17.4167C0 16.9681 0.101333 16.5923 0.304 16.2893C0.505963 15.9853 0.756481 15.8333 1.05556 15.8333H17.9444C18.2435 15.8333 18.494 15.9853 18.696 16.2893C18.8987 16.5923 19 16.9681 19 17.4167C19 17.8653 18.8987 18.2411 18.696 18.544C18.494 18.848 18.2435 19 17.9444 19H1.05556ZM1.05556 11.0833C0.756481 11.0833 0.505963 10.9313 0.304 10.6273C0.101333 10.3244 0 9.94861 0 9.5C0 9.05139 0.101333 8.67508 0.304 8.37108C0.505963 8.06814 0.756481 7.91667 1.05556 7.91667H17.9444C18.2435 7.91667 18.494 8.06814 18.696 8.37108C18.8987 8.67508 19 9.05139 19 9.5C19 9.94861 18.8987 10.3244 18.696 10.6273C18.494 10.9313 18.2435 11.0833 17.9444 11.0833H1.05556ZM1.05556 3.16667C0.756481 3.16667 0.505963 3.01519 0.304 2.71225C0.101333 2.40825 0 2.03194 0 1.58333C0 1.13472 0.101333 0.758417 0.304 0.454417C0.505963 0.151473 0.756481 0 1.05556 0H17.9444C18.2435 0 18.494 0.151473 18.696 0.454417C18.8987 0.758417 19 1.13472 19 1.58333C19 2.03194 18.8987 2.40825 18.696 2.71225C18.494 3.01519 18.2435 3.16667 17.9444 3.16667H1.05556Z" fill="#0F253B"/>
</svg>
