<svg width="16" height="15" viewBox="0 0 16 15" fill="none" xmlns="http://www.w3.org/2000/svg">
<path d="M14.5956 4.8H12.3996L11.9316 2.004C11.8373 1.58096 11.6302 1.19136 11.3323 0.876546C11.0344 0.561737 10.6568 0.333477 10.2396 0.216C9.82049 0.0811503 9.38387 0.00837905 8.94364 0H6.25564C5.81542 0.00837905 5.37879 0.0811503 4.95964 0.216C4.54244 0.333477 4.16485 0.561737 3.86694 0.876546C3.56903 1.19136 3.36194 1.58096 3.26764 2.004L2.79964 4.8H0.60364C0.509127 4.79943 0.415815 4.82119 0.331307 4.86352C0.246799 4.90584 0.173486 4.96753 0.11734 5.04356C0.0611943 5.11959 0.0238042 5.20781 0.00821633 5.30103C-0.00737151 5.39426 -0.000716086 5.48984 0.0276401 5.58L2.28364 13.14C2.39849 13.5052 2.6268 13.8243 2.9354 14.0509C3.24399 14.2775 3.61679 14.3998 3.99964 14.4H11.1996C11.5804 14.3972 11.9505 14.2738 12.2567 14.0474C12.5629 13.8209 12.7894 13.5033 12.9036 13.14L15.1596 5.58C15.1877 5.4908 15.1945 5.39628 15.1796 5.30398C15.1646 5.21168 15.1283 5.12415 15.0735 5.04837C15.0187 4.9726 14.947 4.91068 14.864 4.86756C14.781 4.82444 14.6891 4.8013 14.5956 4.8ZM4.02364 4.8L4.45564 2.196C4.503 1.98339 4.61286 1.7898 4.7711 1.64011C4.92934 1.49042 5.12873 1.39148 5.34364 1.356C5.63884 1.2624 5.94604 1.2108 6.25564 1.2H8.94364C9.25684 1.2096 9.56764 1.2612 9.86764 1.356C10.0826 1.39148 10.2819 1.49042 10.4402 1.64011C10.5984 1.7898 10.7083 1.98339 10.7556 2.196L11.1756 4.8H3.97564H4.02364Z" fill="white"/>
</svg>
