<svg width="18" height="18" viewBox="0 0 18 18" fill="none" xmlns="http://www.w3.org/2000/svg">
<mask id="mask0_1853_1328" style="mask-type:luminance" maskUnits="userSpaceOnUse" x="0" y="0" width="18" height="18">
<path d="M13.7573 5.68912C14.2355 6.37413 14.5591 7.15491 14.7056 7.97738H16.5V10.0226H14.7056C14.5591 10.8451 14.2355 11.6259 13.7573 12.3109L15.0266 13.5803L13.5803 15.0266L12.3109 13.7573C11.6259 14.2355 10.8451 14.5591 10.0226 14.7056V16.5H7.97738V14.7056C7.15491 14.5591 6.37413 14.2355 5.68912 13.7573L4.41975 15.0266L2.97337 13.5803L4.24275 12.3109C3.76453 11.6259 3.44093 10.8451 3.29437 10.0226H1.5V7.97738H3.29437C3.44093 7.15491 3.76453 6.37413 4.24275 5.68912L2.97337 4.41975L4.41975 2.97337L5.68912 4.24275C6.37413 3.76453 7.15491 3.44093 7.97738 3.29437V1.5H10.0226V3.29437C10.8451 3.44093 11.6259 3.76453 12.3109 4.24275L13.5803 2.97337L15.0266 4.41975L13.7573 5.68912Z" fill="white" stroke="white" stroke-width="1.5" stroke-linejoin="round"/>
<path d="M9 10.875C9.49728 10.875 9.97419 10.6775 10.3258 10.3258C10.6775 9.97419 10.875 9.49728 10.875 9C10.875 8.50272 10.6775 8.02581 10.3258 7.67417C9.97419 7.32254 9.49728 7.125 9 7.125C8.50272 7.125 8.02581 7.32254 7.67417 7.67417C7.32254 8.02581 7.125 8.50272 7.125 9C7.125 9.49728 7.32254 9.97419 7.67417 10.3258C8.02581 10.6775 8.50272 10.875 9 10.875Z" fill="black" stroke="black" stroke-width="1.5" stroke-linejoin="round"/>
</mask>
<g mask="url(#mask0_1853_1328)">
<path d="M0 0H18V18H0V0Z" fill="white"/>
</g>
</svg>
