<svg width="24" height="24" viewBox="0 0 24 24" fill="none" xmlns="http://www.w3.org/2000/svg">
<rect width="24" height="24" fill="#F5F5F5"/>
<g id="Dashboard">
<rect width="1440" height="1140" transform="translate(-468 -270)" fill="white"/>
<g id="Frame 65" filter="url(#filter0_d_167_504)">
<rect x="-20" y="-18" width="832" height="372" rx="10" fill="white"/>
<path id="Vector" d="M6 24V18H0V13.2H7.74L9.78 16.26C9.88 16.42 10.02 16.55 10.2 16.65C10.38 16.75 10.57 16.8 10.77 16.8C11.03 16.8 11.27 16.72 11.49 16.56C11.71 16.4 11.86 16.2 11.94 15.96L13.56 11.1L14.58 12.66C14.7 12.82 14.85 12.95 15.03 13.05C15.21 13.15 15.4 13.2 15.6 13.2H24V18H18V24H6ZM10.44 12.9L9.39 11.34C9.29 11.18 9.15 11.05 8.97 10.95C8.79 10.85 8.6 10.8 8.4 10.8H0V6H6V0H18V6H24V10.8H16.23L14.19 7.74C14.09 7.58 13.95 7.45 13.77 7.35C13.59 7.25 13.4 7.2 13.2 7.2C12.94 7.2 12.7048 7.28 12.4944 7.44C12.284 7.6 12.1392 7.8 12.06 8.04L10.44 12.9Z" fill="black"/>
<rect x="-19.5" y="-17.5" width="831" height="371" rx="9.5" stroke="black" stroke-opacity="0.3"/>
</g>
</g>
<defs>
<filter id="filter0_d_167_504" x="-28" y="-22" width="848" height="388" filterUnits="userSpaceOnUse" color-interpolation-filters="sRGB">
<feFlood flood-opacity="0" result="BackgroundImageFix"/>
<feColorMatrix in="SourceAlpha" type="matrix" values="0 0 0 0 0 0 0 0 0 0 0 0 0 0 0 0 0 0 127 0" result="hardAlpha"/>
<feOffset dy="4"/>
<feGaussianBlur stdDeviation="4"/>
<feComposite in2="hardAlpha" operator="out"/>
<feColorMatrix type="matrix" values="0 0 0 0 0 0 0 0 0 0 0 0 0 0 0 0 0 0 0.05 0"/>
<feBlend mode="normal" in2="BackgroundImageFix" result="effect1_dropShadow_167_504"/>
<feBlend mode="normal" in="SourceGraphic" in2="effect1_dropShadow_167_504" result="shape"/>
</filter>
</defs>
</svg>
