<svg width="21" height="16" viewBox="0 0 21 16" fill="none" xmlns="http://www.w3.org/2000/svg">
<path d="M18.133 3.99753C18.146 4.17253 18.146 4.34653 18.146 4.52053C18.146 9.84553 14.093 15.9815 6.686 15.9815C4.404 15.9815 2.284 15.3205 0.5 14.1725C0.824 14.2095 1.136 14.2225 1.473 14.2225C3.356 14.2225 5.089 13.5865 6.474 12.5015C4.703 12.4645 3.219 11.3045 2.707 9.70853C2.956 9.74553 3.206 9.77053 3.468 9.77053C3.829 9.77053 4.192 9.72053 4.529 9.63353C2.682 9.25953 1.299 7.63853 1.299 5.68053V5.63053C1.836 5.92953 2.459 6.11653 3.119 6.14153C2.034 5.41953 1.323 4.18453 1.323 2.78753C1.323 2.03953 1.522 1.35353 1.871 0.755531C3.854 3.19853 6.835 4.79553 10.177 4.97053C10.115 4.67053 10.077 4.35953 10.077 4.04753C10.077 1.82753 11.873 0.0195312 14.105 0.0195312C15.265 0.0195312 16.312 0.505531 17.048 1.29153C17.958 1.11653 18.83 0.779531 19.604 0.318531C19.305 1.25353 18.668 2.03953 17.833 2.53853C18.644 2.45053 19.43 2.22653 20.152 1.91453C19.604 2.71253 18.919 3.42353 18.133 3.99753Z" fill="#0F253B"/>
</svg>
