<svg width="20" height="20" viewBox="0 0 20 20" fill="none" xmlns="http://www.w3.org/2000/svg">
<path d="M18.8477 2.14844C19.0169 2.44141 19.1699 2.72135 19.3066 2.98828C19.4434 3.25521 19.5671 3.52539 19.6777 3.79883C19.7884 4.07227 19.8665 4.35547 19.9121 4.64844C19.9577 4.94141 19.987 5.26693 20 5.625C20 6.13932 19.9349 6.63411 19.8047 7.10938C19.6745 7.58464 19.4857 8.03385 19.2383 8.45703C18.9909 8.88021 18.6947 9.26107 18.3496 9.59961C18.0046 9.93815 17.6237 10.2311 17.207 10.4785C16.7904 10.7259 16.3444 10.9147 15.8691 11.0449C15.3939 11.1751 14.8958 11.2435 14.375 11.25C14.2253 11.25 14.0755 11.2435 13.9258 11.2305C13.776 11.2174 13.623 11.1979 13.4668 11.1719L5.5957 19.043C5.2832 19.3555 4.92839 19.5931 4.53125 19.7559C4.13411 19.9186 3.71419 20 3.27148 20C2.82227 20 2.39909 19.9154 2.00195 19.7461C1.60482 19.5768 1.25977 19.3424 0.966797 19.043C0.673828 18.7435 0.439453 18.3952 0.263672 17.998C0.0878906 17.6009 0 17.1777 0 16.7285C0 16.2923 0.0813802 15.8757 0.244141 15.4785C0.406901 15.0814 0.644531 14.7233 0.957031 14.4043L8.82812 6.5332C8.80208 6.38346 8.78255 6.23372 8.76953 6.08398C8.75651 5.93424 8.75 5.78125 8.75 5.625C8.75 5.11068 8.8151 4.61589 8.94531 4.14062C9.07552 3.66536 9.26432 3.21615 9.51172 2.79297C9.75911 2.36979 10.0553 1.98893 10.4004 1.65039C10.7454 1.31185 11.1263 1.01888 11.543 0.771484C11.9596 0.524089 12.4056 0.335286 12.8809 0.205078C13.3561 0.0748698 13.8542 0.00651042 14.375 0C14.7266 0 15.0488 0.0260417 15.3418 0.078125C15.6348 0.130208 15.9212 0.211589 16.2012 0.322266C16.4811 0.432943 16.7513 0.553385 17.0117 0.683594C17.2721 0.813802 17.5521 0.970052 17.8516 1.15234L14.0039 5L15 5.99609L18.8477 2.14844ZM14.375 10C14.9805 10 15.5469 9.88607 16.0742 9.6582C16.6016 9.43034 17.0638 9.11784 17.4609 8.7207C17.8581 8.32357 18.1706 7.86133 18.3984 7.33398C18.6263 6.80664 18.7435 6.23698 18.75 5.625C18.75 5.14974 18.6719 4.69076 18.5156 4.24805L15 7.75391L12.2461 5L15.752 1.48438C15.3092 1.32812 14.8503 1.25 14.375 1.25C13.7695 1.25 13.2031 1.36393 12.6758 1.5918C12.1484 1.81966 11.6862 2.13216 11.2891 2.5293C10.8919 2.92643 10.5794 3.38867 10.3516 3.91602C10.1237 4.44336 10.0065 5.01302 10 5.625C10 5.85286 10.0195 6.07422 10.0586 6.28906C10.0977 6.50391 10.1432 6.71875 10.1953 6.93359L1.8457 15.293C1.6569 15.4818 1.51042 15.6999 1.40625 15.9473C1.30208 16.1947 1.25 16.4551 1.25 16.7285C1.25 17.002 1.30208 17.2624 1.40625 17.5098C1.51042 17.7572 1.6569 17.972 1.8457 18.1543C2.03451 18.3366 2.24935 18.4798 2.49023 18.584C2.73112 18.6882 2.99154 18.7435 3.27148 18.75C3.54492 18.75 3.80534 18.6979 4.05273 18.5938C4.30013 18.4896 4.51823 18.3431 4.70703 18.1543L13.0664 9.80469C13.2812 9.85677 13.4961 9.90234 13.7109 9.94141C13.9258 9.98047 14.1471 10 14.375 10Z" fill="white"/>
</svg>
