<svg width="56" height="51" viewBox="0 0 56 51" fill="none" xmlns="http://www.w3.org/2000/svg">
<path d="M28 25.5V49.5M28 25.5L21.3333 30.8333M28 25.5L34.6667 30.8333M9.42401 17.812C6.9019 18.4467 4.69835 19.9804 3.22735 22.1252C1.75635 24.2699 1.11916 26.878 1.43549 29.4594C1.75183 32.0409 2.99991 34.4179 4.94525 36.144C6.89059 37.8701 9.39929 38.8265 12 38.8333H14.6667" stroke="#3B95ED" stroke-width="1.5" stroke-linecap="round" stroke-linejoin="round"/>
<path d="M38.2133 12.5346C37.3019 8.92542 35.0522 5.79788 31.9204 3.78592C28.7885 1.77396 25.0087 1.02814 21.3474 1.69964C17.686 2.37114 14.4169 4.40972 12.2028 7.40214C9.98878 10.3945 8.99538 14.1169 9.42402 17.8146C9.42402 17.8146 9.83202 20.1666 10.6667 21.4999" stroke="#3B95ED" stroke-width="1.5" stroke-linecap="round" stroke-linejoin="round"/>
<path d="M41.3334 38.8332C43.2161 38.8319 45.0773 38.4319 46.7943 37.6595C48.5113 36.8871 50.0453 35.7598 51.2953 34.3518C52.5452 32.9438 53.4828 31.287 54.0464 29.4906C54.6099 27.6941 54.7866 25.7987 54.5648 23.929C54.3429 22.0594 53.7277 20.2579 52.7595 18.6431C51.7912 17.0284 50.492 15.637 48.9473 14.5606C47.4026 13.4842 45.6474 12.7471 43.7973 12.3979C41.9472 12.0486 40.0442 12.0952 38.2134 12.5345L34.6667 13.4998" stroke="#3B95ED" stroke-width="1.5" stroke-linecap="round" stroke-linejoin="round"/>
</svg>
