<svg width="275" height="275" viewBox="0 0 275 275" fill="none" xmlns="http://www.w3.org/2000/svg">
<circle cx="179" cy="25" r="1" fill="#D02C2C"/>
<path d="M169.771 38L193.756 157.382" stroke="black" stroke-opacity="0.12"/>
<g filter="url(#filter0_d_1734_265)">
<path d="M81.9669 56.6507L74.0634 58.0443C73.0749 58.2186 72.1317 57.5996 71.9676 56.6688L68.9996 39.8365C68.8355 38.9057 69.51 38.0014 70.4986 37.8271L78.4021 36.4335C79.3907 36.2592 80.3338 36.8782 80.498 37.809L83.4659 54.6413C83.6301 55.5721 82.9555 56.4764 81.9669 56.6507Z" fill="#062045"/>
<path d="M81.8801 56.1583L73.9766 57.5519C73.2317 57.6832 72.5713 57.2133 72.46 56.5819L69.492 39.7497C69.3807 39.1183 69.8405 38.4509 70.5854 38.3195L78.4889 36.9259C79.2339 36.7945 79.8942 37.2645 80.0055 37.8958L82.9735 54.7281C83.0849 55.3595 82.6251 56.0269 81.8801 56.1583Z" stroke="black" stroke-opacity="0.2"/>
<path d="M75.7556 56.8784L80.1555 56.1026" stroke="black" stroke-opacity="0.2" stroke-miterlimit="10" stroke-linecap="round"/>
<mask id="path-6-inside-1_1734_265" fill="white">
<path d="M71.3801 37.6716L71.9526 38.3421C72.1327 38.5529 72.4211 38.6533 72.7071 38.6048L76.3299 37.99C76.6079 37.9428 76.8424 37.7618 76.9478 37.5131L77.3248 36.6234"/>
</mask>
<path d="M71.3801 37.6716L71.9526 38.3421C72.1327 38.5529 72.4211 38.6533 72.7071 38.6048L76.3299 37.99C76.6079 37.9428 76.8424 37.7618 76.9478 37.5131L77.3248 36.6234" fill="#062045"/>
<path d="M71.9526 38.3421L71.1921 38.9915L71.1922 38.9915L71.9526 38.3421ZM72.7071 38.6048L72.5398 37.6189L72.5397 37.6189L72.7071 38.6048ZM76.3299 37.99L76.4972 38.9759L76.4973 38.9759L76.3299 37.99ZM76.9478 37.5131L76.027 37.1229L76.027 37.123L76.9478 37.5131ZM70.6196 38.321L71.1921 38.9915L72.7131 37.6927L72.1406 37.0223L70.6196 38.321ZM71.1922 38.9915C71.6134 39.4847 72.2611 39.6948 72.8744 39.5907L72.5397 37.6189C72.581 37.6119 72.6519 37.6211 72.713 37.6927L71.1922 38.9915ZM72.8744 39.5907L76.4972 38.9759L76.1626 37.0041L72.5398 37.6189L72.8744 39.5907ZM76.4973 38.9759C77.0938 38.8746 77.6232 38.4823 77.8686 37.9031L76.027 37.123C76.0616 37.0414 76.122 37.011 76.1625 37.0041L76.4973 38.9759ZM77.8685 37.9033L78.2455 37.0136L76.404 36.2332L76.027 37.1229L77.8685 37.9033Z" fill="black" fill-opacity="0.2" mask="url(#path-6-inside-1_1734_265)"/>
<path d="M81.9081 56.6612L74.0046 58.0548C73.016 58.2291 72.0729 57.6101 71.9087 56.6793L68.9408 39.847C68.7766 38.9162 69.4512 38.0119 70.4398 37.8376L78.3433 36.444C79.3319 36.2697 80.275 36.8887 80.4391 37.8195L83.4071 54.6518C83.5712 55.5826 82.8967 56.4869 81.9081 56.6612Z" stroke="black" stroke-opacity="0.2" stroke-miterlimit="10"/>
<g opacity="0.01">
<path d="M80.6072 48.7459L72.3455 50.2026C72.0523 50.2543 71.7726 50.0707 71.724 49.7947L71.3143 47.4715C71.2656 47.1955 71.4657 46.9274 71.7589 46.8757L80.0205 45.419C80.3137 45.3673 80.5934 45.5508 80.6421 45.8268L81.0517 48.15C81.1004 48.426 80.9003 48.6942 80.6072 48.7459Z" fill="#062045"/>
<path d="M80.5203 48.2535L72.2587 49.7102C72.2396 49.7136 72.2253 49.7087 72.2174 49.7035C72.2166 49.703 72.2159 49.7025 72.2153 49.7021L71.8077 47.3905C71.8081 47.39 71.8086 47.3893 71.8091 47.3885C71.8147 47.381 71.8265 47.3715 71.8457 47.3681L80.1074 45.9114C80.1265 45.908 80.1409 45.9129 80.1487 45.918C80.1495 45.9186 80.1501 45.919 80.1507 45.9195L80.5583 48.231C80.5579 48.2316 80.5574 48.2323 80.5569 48.2331C80.5512 48.2406 80.5394 48.2501 80.5203 48.2535Z" stroke="black" stroke-opacity="0.2"/>
<path d="M73.8845 48.2154C73.967 48.6832 73.6311 49.1334 73.1344 49.221C72.6375 49.3086 72.1679 49.0004 72.0854 48.5326C72.0029 48.0649 72.3388 47.6146 72.8357 47.527C73.3324 47.4394 73.802 47.7476 73.8845 48.2154Z" fill="#062045"/>
<path d="M73.3921 48.3022C73.4218 48.4705 73.3007 48.6839 73.0475 48.7286C72.7942 48.7732 72.6074 48.6141 72.5778 48.4458C72.5481 48.2776 72.6692 48.0641 72.9225 48.0194C73.1757 47.9748 73.3624 48.1339 73.3921 48.3022Z" stroke="black" stroke-opacity="0.2"/>
</g>
<mask id="path-13-inside-2_1734_265" fill="white">
<path d="M81.5235 28.063C81.428 28.196 81.3755 28.2691 81.3755 28.2691L81.5235 28.063Z"/>
</mask>
<path d="M81.5235 28.063C81.428 28.196 81.3755 28.2691 81.3755 28.2691L81.5235 28.063Z" fill="#B1FFF6"/>
<path d="M80.7111 27.4799C80.6633 27.5464 80.6264 27.5979 80.6013 27.6328C80.5888 27.6503 80.5792 27.6636 80.5728 27.6725C80.5696 27.677 80.5672 27.6804 80.5656 27.6826C80.5647 27.6837 80.5641 27.6846 80.5637 27.6852C80.5635 27.6854 80.5634 27.6857 80.5633 27.6858C80.5632 27.6859 80.5632 27.6859 80.5632 27.686C80.5631 27.686 80.5631 27.686 80.5631 27.686C80.5631 27.686 80.5631 27.686 80.5631 27.686C80.5631 27.686 80.5631 27.686 80.5631 27.686C80.5631 27.686 80.5631 27.686 81.3755 28.2691C82.1879 28.8522 82.1879 28.8522 82.1879 28.8522C82.1879 28.8522 82.1879 28.8522 82.1879 28.8522C82.1879 28.8522 82.1879 28.8522 82.1879 28.8522C82.1879 28.8522 82.1879 28.8522 82.188 28.8522C82.188 28.8521 82.188 28.8521 82.1881 28.852C82.1882 28.8518 82.1883 28.8516 82.1885 28.8514C82.1889 28.8508 82.1896 28.8499 82.1904 28.8488C82.192 28.8465 82.1944 28.8432 82.1976 28.8387C82.204 28.8298 82.2136 28.8165 82.2261 28.799C82.2512 28.7641 82.2881 28.7126 82.3359 28.6461L80.7111 27.4799Z" fill="#E66363" mask="url(#path-13-inside-2_1734_265)"/>
<path d="M81.5235 28.063C81.428 28.196 81.3755 28.2691 81.3755 28.2691L81.5235 28.063Z" fill="#B1FFF6"/>
<path d="M81.5235 28.063C81.428 28.196 81.3755 28.2691 81.3755 28.2691" stroke="#E66363" stroke-miterlimit="10" stroke-linecap="round"/>
<mask id="path-17-inside-3_1734_265" fill="white">
<path d="M86.2369 32.0933C86.0922 32.1779 86.0127 32.2243 86.0127 32.2243L86.2369 32.0933Z"/>
</mask>
<path d="M86.2369 32.0933C86.0922 32.1779 86.0127 32.2243 86.0127 32.2243L86.2369 32.0933Z" fill="#B1FFF6"/>
<path d="M85.7322 31.23C85.6601 31.2722 85.6042 31.3048 85.5663 31.3269C85.5474 31.338 85.533 31.3464 85.5234 31.352C85.5186 31.3548 85.5149 31.3569 85.5125 31.3583C85.5113 31.359 85.5104 31.3596 85.5098 31.3599C85.5095 31.3601 85.5092 31.3602 85.5091 31.3603C85.509 31.3604 85.509 31.3604 85.5089 31.3604C85.5089 31.3604 85.5089 31.3604 85.5089 31.3604C85.5089 31.3604 85.5089 31.3604 85.5089 31.3604C85.5089 31.3604 85.5089 31.3604 85.5089 31.3604C85.5089 31.3604 85.5089 31.3604 86.0127 32.2243C86.5165 33.0881 86.5165 33.0881 86.5165 33.0881C86.5165 33.0881 86.5165 33.0881 86.5165 33.0881C86.5165 33.0881 86.5165 33.0881 86.5165 33.0881C86.5165 33.0881 86.5166 33.088 86.5166 33.088C86.5166 33.088 86.5167 33.088 86.5168 33.0879C86.5169 33.0878 86.5172 33.0877 86.5175 33.0875C86.5181 33.0871 86.5191 33.0866 86.5203 33.0859C86.5228 33.0844 86.5265 33.0822 86.5314 33.0794C86.5412 33.0737 86.5557 33.0652 86.5747 33.0541C86.6128 33.0318 86.669 32.999 86.7415 32.9567L85.7322 31.23Z" fill="#E66363" mask="url(#path-17-inside-3_1734_265)"/>
<path d="M86.2369 32.0933C86.0922 32.1779 86.0127 32.2243 86.0127 32.2243L86.2369 32.0933Z" fill="#B1FFF6"/>
<path d="M86.2369 32.0933C86.0922 32.1779 86.0127 32.2243 86.0127 32.2243" stroke="#E66363" stroke-miterlimit="10" stroke-linecap="round"/>
<mask id="path-21-inside-4_1734_265" fill="white">
<path d="M87.9783 36.9694C87.8102 36.9623 87.7178 36.9584 87.7178 36.9584L87.9783 36.9694Z"/>
</mask>
<path d="M87.9783 36.9694C87.8102 36.9623 87.7178 36.9584 87.7178 36.9584L87.9783 36.9694Z" fill="#B1FFF6"/>
<path d="M88.0206 35.9703C87.9365 35.9667 87.8713 35.964 87.8271 35.9621C87.805 35.9612 87.7882 35.9605 87.7769 35.96C87.7712 35.9597 87.7669 35.9596 87.7641 35.9594C87.7626 35.9594 87.7615 35.9593 87.7608 35.9593C87.7605 35.9593 87.7602 35.9593 87.76 35.9593C87.7599 35.9593 87.7598 35.9593 87.7598 35.9593C87.7598 35.9593 87.7597 35.9593 87.7597 35.9593C87.7597 35.9593 87.7597 35.9593 87.7597 35.9593C87.7597 35.9593 87.7597 35.9593 87.7597 35.9593C87.7597 35.9593 87.7597 35.9593 87.7178 36.9584C87.6758 37.9575 87.6758 37.9575 87.6758 37.9575C87.6758 37.9575 87.6758 37.9575 87.6758 37.9575C87.6758 37.9575 87.6758 37.9575 87.6758 37.9575C87.6759 37.9575 87.6759 37.9575 87.6759 37.9575C87.6759 37.9575 87.676 37.9575 87.6761 37.9575C87.6763 37.9575 87.6765 37.9575 87.6769 37.9575C87.6776 37.9576 87.6787 37.9576 87.6801 37.9577C87.6829 37.9578 87.6872 37.958 87.6928 37.9582C87.7041 37.9587 87.7209 37.9594 87.7429 37.9603C87.7869 37.9622 87.852 37.9649 87.936 37.9685L88.0206 35.9703Z" fill="#E66363" mask="url(#path-21-inside-4_1734_265)"/>
<path d="M87.9783 36.9694C87.8102 36.9623 87.7178 36.9584 87.7178 36.9584L87.9783 36.9694Z" fill="#B1FFF6"/>
<path d="M87.9783 36.9694C87.8102 36.9623 87.7178 36.9584 87.7178 36.9584" stroke="#E66363" stroke-miterlimit="10" stroke-linecap="round"/>
</g>
<line x1="194.668" y1="156.374" x2="79.6682" y2="54.3741" stroke="black" stroke-opacity="0.12"/>
<g filter="url(#filter1_d_1734_265)">
<path d="M171.293 164.791C171.293 164.791 221.816 182.785 224.094 195.533C226.373 208.281 191.688 204.727 179.713 199.643C167.738 194.558 171.293 164.791 171.293 164.791Z" fill="#FFBA00"/>
<path d="M129.191 146.795C129.191 146.795 131.851 160.71 123.909 168.486L116.132 166.429L131.997 201.083C131.997 201.083 176.603 196.555 175.503 193.561C174.403 190.568 161.863 161.379 161.863 161.379C161.863 161.379 155.65 161.505 149.787 165.477L145.563 151.459L129.191 146.795Z" fill="#9D6733"/>
<path d="M148.636 161.659L145.563 151.459L129.191 146.795C129.191 146.795 130.925 155.873 127.407 163.462C131.54 162.126 138.631 160.699 148.636 161.659Z" fill="#815933"/>
<path d="M61.3216 234.552C60.1939 235.207 54.9536 231.755 60.5091 221.162C66.0646 210.568 101.977 169.072 107.204 166.429C112.431 163.785 118.967 167.179 121.438 167.832L134.307 196.368C134.307 196.368 155.694 195.965 170.853 189.819L161.863 161.379L171.293 164.791L184.157 209.096C184.157 209.096 169.753 225.203 172.696 252.504C172.696 252.504 148.034 273.752 125.242 257.65C125.242 257.65 125.472 231.231 111.882 213.209C111.882 213.209 75.4995 226.307 61.3216 234.552Z" fill="#FFBA00"/>
<path d="M183.914 208.256C162.788 218.222 128.504 216.656 126.897 210.402C125.63 205.473 114.673 179.733 108.695 165.84C108.19 165.989 107.691 166.183 107.204 166.429C106.175 166.949 103.955 168.978 101.014 171.977C103.611 173.502 106.502 176.73 106.622 183.568C106.779 192.444 86.3825 215.439 74.5332 228.036C90.8472 220.782 111.882 213.209 111.882 213.209C125.472 231.231 125.243 257.65 125.243 257.65C148.034 273.752 172.696 252.504 172.696 252.504C169.753 225.202 184.157 209.096 184.157 209.096L183.914 208.256Z" fill="url(#paint0_linear_1734_265)" fill-opacity="0.5"/>
<path d="M197.022 180.931C197.022 180.931 228.382 184.128 224.051 197.972C219.72 211.816 202.291 202.961 192.812 194.497L197.022 180.931Z" fill="#9D6733"/>
<path d="M115.624 188.415C115.624 188.415 103.679 194.412 88.5201 203.304C73.361 212.197 61.1911 219.822 60.509 234.532C60.509 234.532 74.8112 241.097 91.2984 225.521C107.786 209.945 118.431 194.497 118.431 194.497L115.624 188.415Z" fill="#9D6733"/>
<path d="M214.128 152.022C214.132 151.15 192.662 153.722 185.698 154.58C184.358 154.745 183.199 155.587 182.625 156.809L164.51 195.419L166.195 198.491L189.135 192.653C189.135 192.653 211.528 162.617 215.813 155.094C216.329 154.188 214.127 152.134 214.128 152.022Z" fill="#7A7979"/>
<g filter="url(#filter2_d_1734_265)">
<path d="M185.23 157.919L166.195 198.491L190.82 195.725C190.82 195.725 215.807 156.136 215.812 155.094C215.818 154.053 185.23 157.919 185.23 157.919Z" fill="#A8A8A8"/>
</g>
<path d="M188.765 161.62C188.444 162.854 189.08 164.089 190.186 164.377C191.292 164.665 192.45 163.899 192.772 162.665C193.094 161.431 192.458 160.197 191.351 159.908C190.245 159.62 189.087 160.386 188.765 161.62Z" fill="#7A7979"/>
<path d="M188.765 161.62C188.443 162.854 188.93 164.049 189.852 164.29C190.774 164.53 191.782 163.725 192.104 162.491C192.426 161.256 191.939 160.062 191.017 159.821C190.095 159.58 189.087 160.386 188.765 161.62Z" fill="#5F5F5F"/>
<path d="M193.174 196.114C193.174 196.114 177.345 194.283 179.287 192.528C181.23 190.773 186.462 191.348 186.462 191.348C186.462 191.348 177.345 189.709 178.196 187.361C179.048 185.013 187.303 186.359 187.303 186.359C187.303 186.359 180.256 184.303 180.925 182.215C181.593 180.127 189.155 181.336 189.155 181.336C189.155 181.336 178.801 179.105 185.591 177.388C192.381 175.671 202.978 177.537 202.978 177.537C204.447 180.1 199.407 182.215 199.407 182.215C203.17 185.118 196.384 189.162 196.384 189.162C200.036 192.358 193.893 195.79 193.893 195.79L193.174 196.114Z" fill="#9D6733"/>
<path d="M127.36 184.875L122.044 171.668C122.044 171.668 103.596 169.343 100.495 187.058L111.422 196.968C111.422 196.968 126.123 199.152 127.36 184.875Z" fill="#9D6733"/>
<path d="M127.36 184.875L122.044 171.668C122.044 171.668 103.596 169.343 100.495 187.058L111.422 196.968C111.422 196.968 126.123 199.152 127.36 184.875Z" fill="#9D6733"/>
<path d="M105.281 170.897C105.281 170.897 103.228 166.537 105.643 164.966C108.058 163.395 113.257 171.803 113.99 176.74C114.723 181.677 110.43 177.706 110.43 177.706C110.43 177.706 112.106 184.297 106.873 180.762C106.873 180.762 108.798 185.394 104.947 184.661C104.947 184.661 107.872 187.25 105.149 188.201C102.426 189.153 92.8396 185.72 96.9311 180.739C96.9311 180.739 91.9908 175.027 99.9851 175.237C99.9851 175.237 95.9948 170.731 99.3986 169.033C102.802 167.335 105.281 170.897 105.281 170.897Z" fill="#9D6733"/>
<path d="M119.644 183.689C119.644 183.689 123.838 173.966 121.69 170.954C119.542 167.941 112.945 168.761 112.945 168.761L107.485 176.531C107.485 176.531 109.885 177.967 112.684 174.978C112.684 174.978 112.817 184.013 119.644 183.689Z" fill="#9D6733"/>
<path d="M134.624 84.4442C135.13 78.5293 133.509 74.5875 127.653 74.5754C124.631 69.1445 120.227 68.66 114.769 71.9444C110.123 67.2782 105.718 68.4385 101.471 73.4518C93.8754 69.5599 93.1828 75.0288 92.4462 80.438C85.274 81.1299 81.793 87.5717 88.1766 93.438C80.2274 96.6373 81.1633 100.824 85.7311 105.415C80.9129 109.655 81.1438 112.293 85.6815 113.566C85.3391 118.608 87.5816 120.022 92.4151 117.8C93.6023 126.011 97.9497 124.264 103.102 119.982L134.624 84.4442Z" fill="#3C3C3C"/>
<path d="M132.039 86.1522C132.479 81.0076 131.07 77.5791 125.976 77.5688C123.348 72.8453 119.518 72.424 114.77 75.2807C110.73 71.222 106.898 72.2313 103.204 76.5915C96.5979 73.2067 95.9956 77.963 95.355 82.6679C89.1172 83.2696 86.0893 88.8724 91.6416 93.9746C84.7277 96.7572 85.5417 100.399 89.5146 104.391C85.3239 108.079 85.5247 110.374 89.4714 111.481C89.1737 115.866 91.1241 117.096 95.3278 115.163C96.3606 122.305 100.142 120.785 104.623 117.061L132.039 86.1522Z" fill="black"/>
<path d="M154.514 93.1546C154.514 93.1546 159.183 97.371 160.237 105.843C161.292 114.315 165.378 117.359 166.362 119.235C167.345 121.111 171.035 148.332 149.925 156.617C128.815 164.903 109.028 140.674 109.028 140.674C109.028 140.674 106.005 115.667 106.14 115.054C106.275 114.441 109.233 101.577 120.788 94.6255C132.344 87.6746 154.514 93.1546 154.514 93.1546Z" fill="#9D6733"/>
<path d="M158.129 127.87C140.254 125.769 123.294 135.082 123.294 135.082C123.294 135.082 124.136 137.269 125.736 140.093C129.076 145.986 135.722 154.658 144.938 152.044C154.059 149.459 156.879 139.515 157.747 133.214C158.177 130.096 158.129 127.87 158.129 127.87Z" fill="white"/>
<path d="M108.199 133.745L110.306 130.837L116.976 135.917C116.976 135.917 107.107 116.892 112.38 106.85C112.38 106.85 123.066 89.6415 156.031 95.473C156.031 95.473 158.572 98.9007 159.651 103.765C159.651 103.765 162.596 99.0285 157.858 93.7428C153.121 88.457 138.275 79.1528 121.638 86.5926C105.001 94.0324 92.4306 109.991 102.605 133.462L108.199 133.745Z" fill="#3C3C3C"/>
<path d="M111.676 134.412C111.676 134.412 105.319 128.152 102.329 131.4C99.3391 134.647 105.601 148.371 113.731 140.541L111.676 134.412Z" fill="#9D6733"/>
<path d="M134.668 122.829C134.668 122.829 140.904 114.494 145.728 121.053L134.668 122.829Z" fill="#794B1E"/>
<path d="M118.631 122.978C118.631 122.978 122.927 116.51 129.872 118.558C129.872 118.558 123.953 114.141 115.727 120.977L118.631 122.978Z" fill="#3C3C3C"/>
<path d="M150.61 113.477C150.61 113.477 155.569 110.503 160.786 113.164L163.525 110.756C163.525 110.756 154.75 107.848 150.61 113.477Z" fill="#3C3C3C"/>
<path d="M114.704 115.816C114.704 115.816 118.793 108.885 126.627 109.864L126.511 107.701C126.511 107.701 117.773 106.274 114.169 113.901L114.704 115.816Z" fill="#3C3C3C"/>
<path d="M149.204 102.345L149.412 105.079C149.412 105.079 155.673 104.273 159.56 105.681C159.56 105.681 161.132 102.931 149.204 102.345Z" fill="#3C3C3C"/>
</g>
<g opacity="0.8">
<g filter="url(#filter3_d_1734_265)">
<path d="M237.461 96.2996L242.782 91.0419C244.502 92.0248 246.647 91.7492 248.28 90.1358C249.999 88.4371 250.551 85.7119 249.887 83.4349L246.191 87.0873L244.094 84.1302L247.798 80.3864C246.024 79.1217 243.646 79.3757 241.927 81.0743C240.293 82.6877 239.687 85.1318 240.204 87.3031L234.882 92.5608C234.539 92.9005 234.49 93.4511 234.77 93.8453L236.378 96.1127C236.65 96.599 237.195 96.6462 237.461 96.2996Z" fill="#062045"/>
<path d="M237.11 95.944L237.085 95.9681L237.064 95.9954C237.046 96.019 237.025 96.0282 236.993 96.0236C236.96 96.0188 236.883 95.9909 236.815 95.8689L236.801 95.8454L236.786 95.8235L235.178 93.5561C235.04 93.3616 235.064 93.0841 235.234 92.9165C235.234 92.9165 235.234 92.9165 235.234 92.9165L240.555 87.6588L240.756 87.461L240.69 87.1873C240.211 85.1734 240.778 82.9119 242.278 81.43L242.278 81.43C243.679 80.0453 245.514 79.7431 246.996 80.4855L243.738 83.7786L243.443 84.077L243.686 84.4195L245.783 87.3765L246.123 87.8567L246.542 87.4429L249.592 84.4292C249.87 86.3448 249.295 88.4299 247.928 89.7801C246.441 91.2498 244.539 91.4698 243.03 90.6077L242.701 90.4195L242.431 90.6862L237.11 95.944Z" stroke="black" stroke-opacity="0.2"/>
</g>
</g>
<g opacity="0.8" filter="url(#filter4_d_1734_265)">
<path d="M179.498 28.0227C179.447 27.9882 179.39 27.973 179.332 27.9577L167.068 24.6714L167.273 21.7025C167.298 21.3801 167.074 21.0734 166.77 20.9919L163.557 20.1309L163.197 21.4743L165.859 22.1876L165.147 32.7547C165.122 33.0771 165.345 33.3838 165.649 33.4653L175.157 36.0127C175.461 36.0942 175.783 35.9545 175.937 35.687L179.734 28.9702C179.945 28.6361 179.834 28.2155 179.498 28.0227Z" fill="#062045"/>
<path d="M179.236 28.4496C179.237 28.45 179.239 28.4505 179.24 28.4508L179.249 28.4562C179.299 28.4849 179.326 28.5259 179.337 28.5663C179.347 28.6056 179.343 28.6529 179.311 28.7026L179.305 28.7132L179.298 28.7242L175.503 35.4386C175.503 35.4388 175.502 35.4391 175.502 35.4394C175.46 35.513 175.367 35.5514 175.286 35.5298L165.779 32.9823C165.703 32.9622 165.639 32.8721 165.645 32.7937L165.645 32.7937L165.646 32.7883L166.358 22.2212L166.385 21.811L165.988 21.7046L163.809 21.1207L163.91 20.7432L166.641 21.4749C166.716 21.495 166.78 21.5851 166.774 21.6635L166.774 21.6635L166.774 21.6681L166.569 24.6371L166.541 25.0478L166.939 25.1544L179.203 28.4406L179.222 28.4457L179.236 28.4496Z" stroke="black" stroke-opacity="0.2"/>
<path d="M166.236 34.5525C167.391 34.862 168.074 36.0581 167.762 37.224C167.45 38.39 166.26 39.0842 165.105 38.7747C163.95 38.4652 163.266 37.2691 163.579 36.1032C163.891 34.9372 165.081 34.243 166.236 34.5525Z" fill="#062045"/>
<path d="M166.107 35.0355C166.991 35.2724 167.521 36.1912 167.279 37.0946C167.037 37.998 166.118 38.5286 165.234 38.2917C164.35 38.0548 163.82 37.136 164.062 36.2326C164.304 35.3291 165.223 34.7985 166.107 35.0355Z" stroke="black" stroke-opacity="0.2"/>
<path d="M173.527 36.5075C174.682 36.817 175.365 38.0131 175.053 39.179C174.74 40.3449 173.551 41.0392 172.396 40.7296C171.24 40.4201 170.557 39.224 170.87 38.0581C171.182 36.8922 172.372 36.1979 173.527 36.5075Z" fill="#062045"/>
<path d="M173.397 36.9904C174.282 37.2273 174.812 38.1462 174.57 39.0496C174.328 39.953 173.409 40.4836 172.525 40.2467C171.641 40.0098 171.111 39.0909 171.353 38.1875C171.595 37.2841 172.513 36.7535 173.397 36.9904Z" stroke="black" stroke-opacity="0.2"/>
</g>
<path d="M236 94L193 155" stroke="black" stroke-opacity="0.12"/>
<defs>
<filter id="filter0_d_1734_265" x="64.4158" y="27.5629" width="28.0625" height="39.021" filterUnits="userSpaceOnUse" color-interpolation-filters="sRGB">
<feFlood flood-opacity="0" result="BackgroundImageFix"/>
<feColorMatrix in="SourceAlpha" type="matrix" values="0 0 0 0 0 0 0 0 0 0 0 0 0 0 0 0 0 0 127 0" result="hardAlpha"/>
<feOffset dy="4"/>
<feGaussianBlur stdDeviation="2"/>
<feComposite in2="hardAlpha" operator="out"/>
<feColorMatrix type="matrix" values="0 0 0 0 0 0 0 0 0 0 0 0 0 0 0 0 0 0 0.25 0"/>
<feBlend mode="normal" in2="BackgroundImageFix" result="effect1_dropShadow_1734_265"/>
<feBlend mode="normal" in="SourceGraphic" in2="effect1_dropShadow_1734_265" result="shape"/>
</filter>
<filter id="filter1_d_1734_265" x="56" y="69" width="170.461" height="200.679" filterUnits="userSpaceOnUse" color-interpolation-filters="sRGB">
<feFlood flood-opacity="0" result="BackgroundImageFix"/>
<feColorMatrix in="SourceAlpha" type="matrix" values="0 0 0 0 0 0 0 0 0 0 0 0 0 0 0 0 0 0 127 0" result="hardAlpha"/>
<feOffset dy="4"/>
<feGaussianBlur stdDeviation="1"/>
<feComposite in2="hardAlpha" operator="out"/>
<feColorMatrix type="matrix" values="0 0 0 0 0 0 0 0 0 0 0 0 0 0 0 0 0 0 0.1 0"/>
<feBlend mode="normal" in2="BackgroundImageFix" result="effect1_dropShadow_1734_265"/>
<feBlend mode="normal" in="SourceGraphic" in2="effect1_dropShadow_1734_265" result="shape"/>
</filter>
<filter id="filter2_d_1734_265" x="162.195" y="154.916" width="57.6179" height="51.5746" filterUnits="userSpaceOnUse" color-interpolation-filters="sRGB">
<feFlood flood-opacity="0" result="BackgroundImageFix"/>
<feColorMatrix in="SourceAlpha" type="matrix" values="0 0 0 0 0 0 0 0 0 0 0 0 0 0 0 0 0 0 127 0" result="hardAlpha"/>
<feOffset dy="4"/>
<feGaussianBlur stdDeviation="2"/>
<feComposite in2="hardAlpha" operator="out"/>
<feColorMatrix type="matrix" values="0 0 0 0 0 0 0 0 0 0 0 0 0 0 0 0 0 0 0.25 0"/>
<feBlend mode="normal" in2="BackgroundImageFix" result="effect1_dropShadow_1734_265"/>
<feBlend mode="normal" in="SourceGraphic" in2="effect1_dropShadow_1734_265" result="shape"/>
</filter>
<filter id="filter3_d_1734_265" x="230.589" y="79.5911" width="23.5713" height="24.9336" filterUnits="userSpaceOnUse" color-interpolation-filters="sRGB">
<feFlood flood-opacity="0" result="BackgroundImageFix"/>
<feColorMatrix in="SourceAlpha" type="matrix" values="0 0 0 0 0 0 0 0 0 0 0 0 0 0 0 0 0 0 127 0" result="hardAlpha"/>
<feOffset dy="4"/>
<feGaussianBlur stdDeviation="2"/>
<feComposite in2="hardAlpha" operator="out"/>
<feColorMatrix type="matrix" values="0 0 0 0 0 0 0 0 0 0 0 0 0 0 0 0 0 0 0.25 0"/>
<feBlend mode="normal" in2="BackgroundImageFix" result="effect1_dropShadow_1734_265"/>
<feBlend mode="normal" in="SourceGraphic" in2="effect1_dropShadow_1734_265" result="shape"/>
</filter>
<filter id="filter4_d_1734_265" x="159.197" y="20.1309" width="24.6448" height="28.6725" filterUnits="userSpaceOnUse" color-interpolation-filters="sRGB">
<feFlood flood-opacity="0" result="BackgroundImageFix"/>
<feColorMatrix in="SourceAlpha" type="matrix" values="0 0 0 0 0 0 0 0 0 0 0 0 0 0 0 0 0 0 127 0" result="hardAlpha"/>
<feOffset dy="4"/>
<feGaussianBlur stdDeviation="2"/>
<feComposite in2="hardAlpha" operator="out"/>
<feColorMatrix type="matrix" values="0 0 0 0 0 0 0 0 0 0 0 0 0 0 0 0 0 0 0.25 0"/>
<feBlend mode="normal" in2="BackgroundImageFix" result="effect1_dropShadow_1734_265"/>
<feBlend mode="normal" in="SourceGraphic" in2="effect1_dropShadow_1734_265" result="shape"/>
</filter>
<linearGradient id="paint0_linear_1734_265" x1="129.345" y1="165.84" x2="129.345" y2="263.679" gradientUnits="userSpaceOnUse">
<stop stop-color="#1025E0"/>
<stop offset="1" stop-color="#E0A310" stop-opacity="0"/>
</linearGradient>
</defs>
</svg>
