<svg width="20" height="22" viewBox="0 0 20 22" fill="none" xmlns="http://www.w3.org/2000/svg">
<path d="M2.20855 1.29004H0.645022C0.473951 1.29004 0.309888 1.22209 0.188923 1.10112C0.0679576 0.980156 0 0.816092 0 0.645022C0 0.473951 0.0679576 0.309887 0.188923 0.188922C0.309888 0.0679574 0.473951 0 0.645022 0H2.71296C2.85684 3.97481e-05 2.99658 0.048184 3.10995 0.136777C3.22332 0.225369 3.30381 0.349323 3.33863 0.488926L5.78584 10.2933C5.82283 10.4576 5.79404 10.63 5.70562 10.7734C5.6172 10.9168 5.47617 11.0199 5.3127 11.0607C5.14922 11.1015 4.97628 11.0767 4.83085 10.9916C4.68543 10.9065 4.57906 10.7679 4.5345 10.6054L2.20855 1.29004Z" fill="#0F253B"/>
<path fill-rule="evenodd" clip-rule="evenodd" d="M17.4091 7.74023H7.10162C6.90811 7.74023 6.71461 7.76217 6.52497 7.80474C5.85396 7.96193 5.27253 8.37853 4.90795 8.96337C4.54336 9.54821 4.42529 10.2537 4.57958 10.9254L5.58969 15.3902C5.718 15.9643 6.03789 16.4776 6.49674 16.8457C6.95558 17.2138 7.52605 17.4148 8.1143 17.4156H16.399C16.9869 17.414 17.5568 17.2127 18.0153 16.8447C18.4738 16.4767 18.7936 15.9638 18.9223 15.3902L19.9324 10.9241C20.0209 10.5438 20.0224 10.1484 19.9369 9.7674C19.8514 9.38642 19.6811 9.02963 19.4385 8.72362C19.196 8.41761 18.8876 8.17026 18.5362 8C18.1848 7.82973 17.7995 7.74094 17.4091 7.74023ZM6.81523 9.06253C6.90959 9.04093 7.0061 9.03011 7.10291 9.03028H17.4091C17.6057 9.03136 17.7996 9.07683 17.9763 9.16328C18.1529 9.24974 18.3078 9.37495 18.4293 9.52958C18.5509 9.68422 18.6359 9.86429 18.6782 10.0564C18.7204 10.2485 18.7187 10.4476 18.6733 10.639L17.6619 15.1051C17.5981 15.3933 17.4383 15.6513 17.2085 15.8368C16.9788 16.0222 16.6929 16.124 16.3977 16.1255H8.1143C7.51056 16.1255 6.98551 15.7024 6.85006 15.1051L5.83996 10.639C5.76167 10.3005 5.82041 9.94481 6.00335 9.64949C6.1863 9.35416 6.47732 9.14317 6.81523 9.06253Z" fill="#0F253B"/>
<path d="M19.3506 19.6731C19.3506 20.2718 19.1128 20.8461 18.6894 21.2694C18.266 21.6928 17.6918 21.9307 17.0931 21.9307C16.4943 21.9307 15.9201 21.6928 15.4967 21.2694C15.0733 20.8461 14.8355 20.2718 14.8355 19.6731C14.8355 19.0744 15.0733 18.5001 15.4967 18.0768C15.9201 17.6534 16.4943 17.4155 17.0931 17.4155C17.6918 17.4155 18.266 17.6534 18.6894 18.0768C19.1128 18.5001 19.3506 19.0744 19.3506 19.6731ZM10.3203 19.6731C10.3203 19.9696 10.2619 20.2631 10.1485 20.537C10.035 20.8109 9.86873 21.0598 9.6591 21.2694C9.44946 21.4791 9.20059 21.6454 8.92669 21.7588C8.65279 21.8723 8.35922 21.9307 8.06275 21.9307C7.76628 21.9307 7.47272 21.8723 7.19881 21.7588C6.92491 21.6454 6.67604 21.4791 6.4664 21.2694C6.25677 21.0598 6.09048 20.8109 5.97702 20.537C5.86357 20.2631 5.80518 19.9696 5.80518 19.6731C5.80518 19.0744 6.04303 18.5001 6.4664 18.0768C6.88978 17.6534 7.46401 17.4155 8.06275 17.4155C8.6615 17.4155 9.23572 17.6534 9.6591 18.0768C10.0825 18.5001 10.3203 19.0744 10.3203 19.6731Z" fill="#0F253B"/>
</svg>
