<svg width="300" height="300" viewBox="0 0 300 300" fill="none" xmlns="http://www.w3.org/2000/svg">
<g clip-path="url(#clip0_1970_608)">
<mask id="mask0_1970_608" style="mask-type:luminance" maskUnits="userSpaceOnUse" x="0" y="0" width="300" height="300">
<path d="M300 0H0V300H300V0Z" fill="white"/>
</mask>
<g mask="url(#mask0_1970_608)">
<path d="M225.293 150C225.293 191.583 191.583 225.292 150 225.292C108.417 225.292 74.707 191.583 74.707 150C74.707 108.417 108.417 74.708 150 74.708C191.583 74.708 225.293 108.417 225.293 150Z" fill="#3B95ED"/>
<path d="M48.8039 151.216C48.4849 123.59 59.3739 95.9321 81.1909 75.7221C103.008 55.5131 131.417 46.7671 158.939 49.1951L159.674 48.5131C157.758 48.3331 155.831 48.1991 153.892 48.1251C126.681 47.0851 100.694 56.7031 80.7169 75.2091C60.7389 93.7151 49.1619 118.893 48.1219 146.105C48.0479 148.043 48.0349 149.974 48.0679 151.899L48.8039 151.216Z" fill="#0F253B"/>
<path d="M237.399 98.8778L237.943 98.3728C234.248 92.1038 229.854 86.1848 224.79 80.7188C217.587 72.9418 209.369 66.4458 200.419 61.3418L199.849 61.8688C208.725 66.8828 216.987 73.3248 224.277 81.1938C229.383 86.7068 233.752 92.6438 237.399 98.8778Z" fill="#0F253B"/>
<path d="M250.419 137.387C254.304 168.648 243.627 201.284 218.805 224.279C177.848 262.219 113.661 259.763 75.721 218.805C68.431 210.936 62.639 202.208 58.318 192.975L57.749 193.503C62.154 202.817 68.003 211.507 75.206 219.282C93.712 239.262 118.89 250.835 146.102 251.874C173.314 252.916 199.304 243.299 219.281 224.792C239.259 206.287 250.833 181.108 251.873 153.896C252.095 148.111 251.83 142.382 251.104 136.752L250.419 137.387Z" fill="#0F253B"/>
<path d="M76.4062 109.66C79.5002 104.016 83.2902 98.6423 87.7962 93.6673C118.222 60.0703 169.863 56.8623 204.199 85.9383L204.651 85.4403C188.218 71.5073 167.438 64.4433 145.815 65.5143C123.248 66.6313 102.467 76.4703 87.3002 93.2183C82.7102 98.2853 78.8052 103.805 75.6152 109.66H76.4062Z" fill="#0F253B"/>
<path d="M66.2583 145.163H65.5433C65.3773 148.147 65.3633 151.157 65.5133 154.184C66.5833 175.806 75.6653 195.786 91.1543 210.761L91.6043 210.263C73.4793 192.716 64.9203 168.754 66.2583 145.163Z" fill="#0F253B"/>
<path d="M224.395 109.66C223.544 108.094 222.642 106.554 221.691 105.042L221.199 105.585C222.035 106.924 222.825 108.285 223.578 109.66H224.395Z" fill="#0F253B"/>
<path d="M234.449 145.163H233.733C234.988 166.847 227.9 189 212.203 206.334C186.482 234.734 145.605 241.413 112.834 225.24L112.342 225.783C125.165 232.18 139.477 235.215 154.182 234.487C176.749 233.37 197.531 223.531 212.7 206.785C227.866 190.038 235.604 168.385 234.487 145.818C234.476 145.599 234.461 145.381 234.449 145.163Z" fill="#0F253B"/>
<path d="M184.244 234.07C185.477 233.553 186.716 233.006 187.925 232.436L187.639 231.83C186.439 232.395 185.21 232.942 183.985 233.453L184.244 234.07Z" fill="#0F253B"/>
<path d="M76.5643 204.008L76.0273 204.407C76.8263 205.48 77.6593 206.547 78.5013 207.578L79.0213 207.155C78.1843 206.131 77.3573 205.071 76.5643 204.008Z" fill="#0F253B"/>
<path d="M72.0837 197.405L71.5137 197.758C72.2127 198.892 72.9457 200.029 73.6957 201.133L74.2497 200.757C73.5057 199.66 72.7777 198.532 72.0837 197.405Z" fill="#0F253B"/>
<path d="M62.3696 175.56L61.7266 175.747C62.1036 177.034 62.5126 178.325 62.9446 179.587L63.5786 179.372C63.1506 178.118 62.7436 176.834 62.3696 175.56Z" fill="#0F253B"/>
<path d="M87.1924 215.911L86.7354 216.399C87.7074 217.311 88.7144 218.217 89.7294 219.089L90.1654 218.583C89.1584 217.716 88.1584 216.817 87.1924 215.911Z" fill="#0F253B"/>
<path d="M68.2035 190.427L67.6035 190.726C68.2005 191.921 68.8325 193.12 69.4825 194.288L70.0675 193.963C69.4225 192.804 68.7955 191.614 68.2035 190.427Z" fill="#0F253B"/>
<path d="M64.956 183.123L64.332 183.368C64.821 184.613 65.344 185.863 65.886 187.083L66.498 186.811C65.96 185.601 65.441 184.359 64.956 183.123Z" fill="#0F253B"/>
<path d="M176.681 236.839C177.956 236.436 179.239 235.999 180.493 235.539L180.262 234.911C179.018 235.366 177.743 235.802 176.479 236.2L176.681 236.839Z" fill="#0F253B"/>
<path d="M160.886 239.66L160.972 240.324C162.298 240.15 163.637 239.944 164.952 239.712L164.838 239.054C163.532 239.284 162.201 239.488 160.886 239.66Z" fill="#0F253B"/>
<path d="M168.759 238.274L168.904 238.928C170.209 238.638 171.526 238.316 172.815 237.97L172.643 237.324C171.362 237.666 170.055 237.987 168.759 238.274Z" fill="#0F253B"/>
<path d="M93.2538 221.12L92.8418 221.647C93.8928 222.474 94.9768 223.287 96.0618 224.064L96.4518 223.519C95.3748 222.748 94.2988 221.939 93.2538 221.12Z" fill="#0F253B"/>
<path d="M99.7527 225.778L99.3867 226.339C100.507 227.07 101.659 227.785 102.811 228.466L103.151 227.888C102.009 227.213 100.866 226.504 99.7527 225.778Z" fill="#0F253B"/>
<path d="M116.366 234.311C115.525 233.984 114.685 233.648 113.86 233.298L113.598 233.915C114.542 234.316 115.504 234.698 116.464 235.068L116.366 234.311Z" fill="#0F253B"/>
<path d="M106.64 229.85L106.325 230.441C107.506 231.07 108.716 231.682 109.924 232.258L110.211 231.654C109.013 231.081 107.812 230.474 106.64 229.85Z" fill="#0F253B"/>
<path d="M81.6152 210.193L81.1152 210.639C82.0042 211.634 82.9282 212.625 83.8612 213.581L84.3412 213.113C83.4142 212.165 82.4982 211.181 81.6152 210.193Z" fill="#0F253B"/>
<path d="M79.2433 92.6838L78.7263 92.2588C77.8763 93.2928 77.0393 94.3598 76.2393 95.4268L76.7763 95.8288C77.5693 94.7688 78.4003 93.7108 79.2433 92.6838Z" fill="#0F253B"/>
<path d="M89.9814 80.7734C88.9674 81.6394 87.9584 82.5434 86.9814 83.4564L87.4384 83.9454C88.4084 83.0394 89.4094 82.1424 90.4154 81.2824L89.9814 80.7734Z" fill="#0F253B"/>
<path d="M84.1017 86.2676C83.1677 87.2206 82.2407 88.2076 81.3477 89.2046L81.8457 89.6516C82.7327 88.6636 83.6527 87.6826 84.5797 86.7366L84.1017 86.2676Z" fill="#0F253B"/>
<path d="M95.7467 76.2402C94.8527 76.8872 93.9627 77.5512 93.0957 78.2282L93.5077 78.7562C94.2737 78.1572 95.0577 77.5722 95.8457 76.9972L95.7467 76.2402Z" fill="#0F253B"/>
<path d="M133.259 61.0555L133.142 60.3955C131.955 60.6055 130.758 60.8465 129.575 61.1045L129.662 61.7715C130.854 61.5105 132.062 61.2675 133.259 61.0555Z" fill="#0F253B"/>
<path d="M152.957 240.355L153.043 241.022C154.349 240.962 155.669 240.877 156.969 240.763L156.911 240.096C155.602 240.21 154.27 240.298 152.957 240.355Z" fill="#0F253B"/>
<path d="M73.8943 98.7021C73.1403 99.8061 72.4003 100.943 71.6943 102.079L72.2633 102.432C72.9623 101.305 73.6973 100.177 74.4463 99.0801L73.8943 98.7021Z" fill="#0F253B"/>
<path d="M69.645 105.55C68.992 106.715 68.354 107.912 67.751 109.108L68.349 109.41C68.948 108.222 69.581 107.034 70.229 105.878L69.645 105.55Z" fill="#0F253B"/>
<path d="M60.7299 127.973C60.4049 129.272 60.1049 130.598 59.8379 131.911L60.4949 132.045C60.7599 130.741 61.0569 129.426 61.3799 128.137L60.7299 127.973Z" fill="#0F253B"/>
<path d="M66.0154 112.746C65.4664 113.967 64.9364 115.217 64.4424 116.46L65.0644 116.708C65.5564 115.474 66.0814 114.232 66.6264 113.021L66.0154 112.746Z" fill="#0F253B"/>
<path d="M63.0339 120.241C62.5959 121.506 62.1769 122.798 61.7949 124.081L62.4369 124.273C62.8169 122.999 63.2309 121.716 63.6669 120.46L63.0339 120.241Z" fill="#0F253B"/>
<path d="M236.368 176.105C236.753 174.82 237.113 173.51 237.439 172.213L236.788 172.051C236.465 173.338 236.106 174.638 235.725 175.915L236.368 176.105Z" fill="#0F253B"/>
<path d="M231.733 113.37L232.345 113.1C231.804 111.879 231.228 110.653 230.631 109.454L230.032 109.752C230.624 110.941 231.196 112.159 231.733 113.37Z" fill="#0F253B"/>
<path d="M219.233 93.0133L219.753 92.5903C218.908 91.5543 218.03 90.5243 217.142 89.5273L216.642 89.9733C217.523 90.9623 218.395 91.9853 219.233 93.0133Z" fill="#0F253B"/>
<path d="M191.53 230.638C192.709 230.019 193.889 229.361 195.04 228.688L194.703 228.11C193.56 228.779 192.388 229.43 191.218 230.046L191.53 230.638Z" fill="#0F253B"/>
<path d="M223.996 99.4167L224.551 99.0417C223.803 97.9367 223.019 96.8337 222.224 95.7627L221.685 96.1627C222.475 97.2257 223.253 98.3197 223.996 99.4167Z" fill="#0F253B"/>
<path d="M149.366 59.6497L149.367 58.9797C148.033 58.9767 146.677 59.0047 145.339 59.0617L145.368 59.7307C146.695 59.6747 148.041 59.6477 149.366 59.6497Z" fill="#0F253B"/>
<path d="M137.209 60.4453L137.404 60.4193C138.723 60.2473 140.061 60.1023 141.379 59.9883L141.321 59.3213C139.994 59.4363 138.647 59.5823 137.316 59.7553L137.123 59.7803L137.209 60.4453Z" fill="#0F253B"/>
<path d="M157.351 60.0182L157.412 59.3502C156.08 59.2292 154.728 59.1372 153.394 59.0762L153.362 59.7462C154.688 59.8072 156.03 59.8982 157.351 60.0182Z" fill="#0F253B"/>
<path d="M180.705 65.3467L180.939 64.7197C179.681 64.2487 178.4 63.8007 177.13 63.3887L176.923 64.0277C178.184 64.4357 179.456 64.8797 180.705 65.3467Z" fill="#0F253B"/>
<path d="M173.085 62.8771L173.263 62.2311C171.975 61.8761 170.657 61.5441 169.348 61.2451L169.199 61.8981C170.498 62.1941 171.806 62.5241 173.085 62.8771Z" fill="#0F253B"/>
<path d="M165.272 61.0937L165.392 60.4357C164.075 60.1957 162.737 59.9837 161.414 59.8037L161.324 60.4677C162.637 60.6457 163.965 60.8567 165.272 61.0937Z" fill="#0F253B"/>
<path d="M228.172 106.215L228.756 105.889C228.109 104.722 227.427 103.553 226.731 102.419L226.159 102.771C226.851 103.897 227.528 105.056 228.172 106.215Z" fill="#0F253B"/>
<path d="M216.778 210.963C217.671 209.968 218.555 208.942 219.404 207.91L218.885 207.483C218.044 208.508 217.167 209.528 216.278 210.515L216.778 210.963Z" fill="#0F253B"/>
<path d="M221.894 204.743C222.695 203.676 223.487 202.575 224.242 201.471L223.69 201.091C222.939 202.188 222.154 203.281 221.358 204.341L221.894 204.743Z" fill="#0F253B"/>
<path d="M226.445 198.096C227.152 196.96 227.84 195.794 228.498 194.629L227.913 194.3C227.262 195.457 226.577 196.617 225.877 197.743L226.445 198.096Z" fill="#0F253B"/>
<path d="M198.465 226.583C199.584 225.859 200.704 225.102 201.793 224.328L201.405 223.781C200.323 224.551 199.212 225.304 198.102 226.021L198.465 226.583Z" fill="#0F253B"/>
<path d="M230.396 191.073C231 189.879 231.585 188.655 232.136 187.436L231.525 187.161C230.979 188.371 230.398 189.586 229.798 190.772L230.396 191.073Z" fill="#0F253B"/>
<path d="M205.018 221.926C206.069 221.107 207.118 220.251 208.136 219.382L207.701 218.872C206.691 219.736 205.649 220.584 204.606 221.398L205.018 221.926Z" fill="#0F253B"/>
<path d="M211.138 216.705C212.116 215.792 213.085 214.847 214.021 213.895L213.542 213.427C212.615 214.372 211.652 215.309 210.681 216.214L211.138 216.705Z" fill="#0F253B"/>
<path d="M238.436 136.331L239.098 136.229C238.895 134.902 238.661 133.567 238.403 132.263L237.746 132.393C238.002 133.688 238.234 135.013 238.436 136.331Z" fill="#0F253B"/>
<path d="M233.712 183.726C234.209 182.483 234.684 181.211 235.124 179.946L234.491 179.726C234.054 180.981 233.582 182.244 233.09 183.477L233.712 183.726Z" fill="#0F253B"/>
<path d="M234.644 120.815L235.279 120.6C234.847 119.335 234.381 118.061 233.895 116.817L233.272 117.061C233.754 118.296 234.216 119.558 234.644 120.815Z" fill="#0F253B"/>
<path d="M236.883 128.49L237.533 128.331C237.217 127.035 236.866 125.725 236.492 124.44L235.849 124.628C236.222 125.903 236.569 127.203 236.883 128.49Z" fill="#0F253B"/>
<path d="M239.97 144.237C239.885 142.91 239.767 141.56 239.621 140.225L238.956 140.298C239.1 141.623 239.216 142.964 239.302 144.281L239.97 144.237Z" fill="#0F253B"/>
<path d="M238.334 168.276C238.601 166.967 238.843 165.633 239.051 164.313L238.39 164.21C238.183 165.52 237.942 166.842 237.678 168.143L238.334 168.276Z" fill="#0F253B"/>
<path d="M239.591 160.322C239.741 158.995 239.863 157.645 239.954 156.311L239.285 156.264C239.195 157.589 239.075 158.929 238.926 160.248L239.591 160.322Z" fill="#0F253B"/>
<path d="M240.138 152.287C240.169 150.95 240.17 149.594 240.143 148.259L239.473 148.274C239.5 149.599 239.498 150.944 239.468 152.272L240.138 152.287Z" fill="#0F253B"/>
<path d="M175.536 198.294C172.237 192.66 162.991 191.442 167.873 187.874C167.735 187.974 169.741 186.213 170.228 185.662C170.434 185.43 170.583 185.271 170.705 185.145C170.775 185.011 170.86 184.854 170.983 184.637C171.189 184.277 171.971 182.278 171.729 183.114C171.935 182.463 172.131 181.809 172.262 181.136C172.321 180.797 172.366 180.557 172.397 180.401C172.432 180.013 172.474 179.626 172.499 179.237C172.556 178.189 172.605 177.143 172.617 176.091C172.644 173.784 172.625 171.476 172.621 169.169C172.615 166.12 173.622 163.727 175.2 161.975C172.348 160.135 169.255 159.891 168.14 161.472L167.743 162.035L166.003 164.501L165.901 164.647L164.599 163.728L166.324 161.285L168.074 158.802L169.485 156.802C170.655 155.143 169.206 152.106 166.257 150.026C163.304 147.943 159.961 147.599 158.79 149.257L157.38 151.259L155.628 153.74L153.904 156.184L152.603 155.266L160.474 144.108L160.463 144.099C160.526 144.011 160.596 143.935 160.659 143.845L171.009 129.173C172.902 126.488 172.039 122.624 169.09 120.544C166.136 118.46 162.208 118.946 160.315 121.63L149.966 136.302C149.903 136.392 149.851 136.481 149.796 136.576L149.78 136.565L126.995 168.867L120.979 180.654L119.29 148.04C120.203 144.197 120.772 140.47 117.594 138.229C114.422 135.991 110.027 136.747 107.786 139.925L105.924 167.239C105.924 167.239 102.775 174.698 104.964 186.361L110.091 196.677C110.314 256.134 113.755 235.764 110.314 240.546L153.795 245.47C155.026 240.546 154.045 216.498 154.045 216.498C155.803 215.94 160.751 214.445 163.245 213.132C164.434 212.506 166.394 211.253 168.769 208.324C173.075 202.432 176.617 200.14 175.536 198.294Z" fill="#C17D61"/>
<path d="M190.422 111.11C187.467 109.027 183.539 109.513 181.647 112.196L171.297 126.869C171.234 126.959 171.184 127.048 171.128 127.142L171.111 127.131L148.325 159.435L148.228 159.366C148.248 159.494 148.267 159.623 148.288 159.753C149.058 164.523 149.404 170.069 151.08 174.686C151.085 174.692 151.092 174.698 151.097 174.702C151.118 174.712 151.138 174.723 151.161 174.735C151.191 174.532 151.46 174.776 151.61 174.973C151.641 174.989 151.673 175.007 151.699 175.022C151.786 175.047 151.862 175.069 151.97 175.102C152.6 175.308 153.235 175.492 153.876 175.659C153.922 175.67 153.968 175.68 154.014 175.691C154.018 175.687 154.024 175.679 154.026 175.675C154.728 174.716 155.425 173.756 156.108 172.783C160.349 166.743 164.268 160.495 167.987 154.123C169.828 150.968 172.63 149.308 175.584 148.868C175.486 148.017 175.48 147.147 175.567 146.282L175.236 146.751L173.935 145.832L177.163 141.256C177.495 140.68 177.871 140.144 178.29 139.658L181.806 134.674L181.795 134.666C181.858 134.578 181.927 134.502 181.99 134.411L192.34 119.739C194.234 117.055 193.37 113.191 190.422 111.11Z" fill="#ECBCA9"/>
<path d="M180.857 198.926C180.857 200.823 179.276 202.376 177.341 202.376H122.658C120.726 202.376 119.143 200.823 119.143 198.926V89.1238C119.143 87.2258 120.726 85.6738 122.658 85.6738H177.341C179.276 85.6738 180.857 87.2258 180.857 89.1238V198.926Z" fill="#123544"/>
<path d="M175.232 98.5586H173.753H170.928H167.714H165.033H164.85H161.255H152.217H149.083H145.868H142.859H138.35H135.551H126.715H126.396H123.59H121.979V111.005L121.973 111.001V114.354L121.979 114.357L121.977 123.607V134.807H121.973V137.575H121.977L121.975 165.365H121.973V167.882H121.975V180.726H121.973V184.08H121.975L121.973 192.443H122.173H125.068H131.488H135.143H135.551H137.917H138.35H141.126H141.535H143.975H152.525H152.665H155.715H163.294H166.41H167.096H170.82H178.027V184.774V179.644V178.425V176.874V173.858V172.544V169.13V137.574V134.806V127.493V123.607V107.04V103.955V98.5586H175.232Z" fill="white"/>
<path d="M164.33 226.8H94.4141V300H164.33V226.8Z" fill="white"/>
<path d="M150.95 236.348C152.706 236.445 154.218 235.105 154.315 233.346C154.414 231.585 153.069 230.082 151.313 229.986C149.56 229.883 148.043 231.228 147.946 232.986C147.846 234.743 149.192 236.247 150.95 236.348Z" fill="#123544"/>
<path d="M167.283 239.954H90.125V300H167.283V239.954Z" fill="#0F253B"/>
<path d="M140.403 204.209C140.618 203.334 140.808 202.459 140.957 201.59C140.8 201.119 141.281 191.804 130.411 184.189C125.38 180.665 119.448 181.452 116.731 181.701V204.209H140.403Z" fill="#C17D61"/>
<path d="M188.371 172.34C189.072 174.982 187.572 177.67 185.024 178.346L173.313 181.449C170.766 182.124 168.133 180.531 167.433 177.891C166.733 175.25 168.23 172.561 170.778 171.886L182.489 168.782C185.036 168.108 187.672 169.7 188.371 172.34Z" fill="#C17D61"/>
<path d="M188.115 160.761C188.794 163.508 187.267 166.245 184.708 166.878L172.946 169.78C170.386 170.411 167.761 168.698 167.086 165.95C166.408 163.204 167.933 160.466 170.491 159.834L182.254 156.932C184.813 156.301 187.439 158.015 188.115 160.761Z" fill="#C17D61"/>
<path d="M187.1 145.319C188.509 148.307 187.491 151.75 184.828 153.006L172.582 158.778C169.917 160.033 166.616 158.628 165.207 155.639C163.799 152.651 164.816 149.208 167.479 147.952L179.725 142.181C182.389 140.925 185.692 142.33 187.1 145.319Z" fill="#C17D61"/>
<path d="M170.439 148.6C170.439 148.6 171.811 150.42 172.751 152.264C173.553 153.837 173.943 155.473 173.943 155.473L170.132 157.415C170.132 157.415 168.503 156.683 167.402 154.358C166.349 152.128 166.628 150.543 166.628 150.543L170.439 148.6Z" fill="white"/>
<path d="M111.577 141.624C111.577 141.624 110.289 140.182 107.824 140.075C107.802 140.074 107.783 140.076 107.761 140.075C107.676 141.546 107.314 146.859 107.202 148.598C107.227 148.599 107.252 148.6 107.277 148.6C109.345 148.596 111.59 148.001 111.59 148.001L111.577 141.624Z" fill="white"/>
<path d="M173.612 160.583C173.612 160.583 174.599 162.507 175.142 164.384C175.606 165.986 175.639 167.584 175.639 167.584L171.359 168.823C171.359 168.823 169.875 167.884 169.273 165.528C168.701 163.27 169.333 161.822 169.333 161.822L173.612 160.583Z" fill="white"/>
<path d="M173.057 172.766C173.057 172.766 173.962 174.577 174.472 176.338C174.908 177.841 174.959 179.333 174.959 179.333L171.173 180.43C171.173 180.43 169.839 179.532 169.272 177.323C168.73 175.205 169.271 173.863 169.271 173.863L173.057 172.766Z" fill="white"/>
<path d="M241.454 121.548C241.876 124.211 240.059 126.712 237.394 127.134L133.122 143.646C130.459 144.068 127.958 142.25 127.536 139.587L119.536 89.0655C119.114 86.4012 120.932 83.9012 123.595 83.4795L227.867 66.9676C230.531 66.5457 233.032 68.3619 233.454 71.0262L241.454 121.548Z" fill="#FFD11D"/>
<path d="M150.896 114.719C145.542 115.566 140.541 112.195 139.751 107.204L138.601 99.9406C137.81 94.948 141.758 91.6712 147.112 90.8234C152.465 89.9758 157.231 91.8725 158.022 96.8652L159.172 104.128C159.963 109.12 156.249 113.871 150.896 114.719ZM147.579 93.7715C143.725 94.3818 140.833 96.4238 141.392 99.9522L142.425 106.479C142.984 110.007 146.575 112.381 150.429 111.77C154.282 111.16 156.962 107.793 156.403 104.265L155.37 97.7387C154.811 94.2103 151.432 93.1614 147.579 93.7715Z" fill="#123544"/>
<path d="M161.969 102.518L136.206 106.598C136.105 106.614 136.009 106.636 135.913 106.66L138.857 125.255L164.916 121.129L161.969 102.518Z" fill="#F75F30"/>
<path d="M139.049 126.466L165.108 122.339L164.916 121.127L138.857 125.254L139.049 126.466Z" fill="#123544"/>
<path d="M148.951 111.073L150.932 110.76L150.635 108.886L148.654 109.199L148.951 111.073Z" fill="white"/>
<path d="M144.985 111.701L146.97 111.387L146.673 109.513L144.688 109.827L144.985 111.701Z" fill="white"/>
<path d="M152.916 110.446L154.9 110.132L154.603 108.257L152.62 108.571L152.916 110.446Z" fill="white"/>
<path d="M149.543 114.816L151.524 114.502L151.227 112.628L149.247 112.941L149.543 114.816Z" fill="white"/>
<path d="M145.577 115.444L147.563 115.129L147.266 113.255L145.28 113.569L145.577 115.444Z" fill="white"/>
<path d="M153.509 114.188L155.492 113.874L155.195 111.999L153.212 112.313L153.509 114.188Z" fill="white"/>
<path d="M150.136 118.556L152.116 118.242L151.82 116.368L149.839 116.682L150.136 118.556Z" fill="white"/>
<path d="M146.17 119.184L148.155 118.869L147.859 116.995L145.873 117.31L146.17 119.184Z" fill="white"/>
<path d="M154.101 117.928L156.084 117.614L155.787 115.74L153.804 116.054L154.101 117.928Z" fill="white"/>
<path d="M141.036 155.824L138.657 140.805L154.986 138.219L141.036 155.824Z" fill="#FFD11D"/>
<path d="M226.373 112.637L174.188 120.9L171.948 106.752L224.133 98.4882L226.373 112.637Z" fill="white"/>
<path d="M223.713 95.8398L171.528 104.104L169.288 89.9551L221.473 81.6913L223.713 95.8398Z" fill="white"/>
<path d="M187.405 111.947C187.539 112.788 186.964 113.577 186.124 113.71C185.283 113.844 184.494 113.27 184.361 112.429C184.228 111.588 184.801 110.799 185.642 110.666C186.482 110.533 187.272 111.106 187.405 111.947Z" fill="#123544"/>
<path d="M192.915 111.075C193.048 111.916 192.473 112.705 191.635 112.838C190.793 112.972 190.004 112.398 189.87 111.557C189.737 110.716 190.311 109.927 191.153 109.794C191.991 109.661 192.781 110.234 192.915 111.075Z" fill="#123544"/>
<path d="M198.424 110.202C198.557 111.043 197.984 111.832 197.144 111.965C196.303 112.098 195.513 111.525 195.38 110.684C195.247 109.843 195.821 109.054 196.662 108.921C197.502 108.788 198.291 109.361 198.424 110.202Z" fill="#123544"/>
<path d="M203.933 109.33C204.066 110.171 203.493 110.96 202.652 111.093C201.811 111.226 201.022 110.653 200.889 109.812C200.756 108.971 201.329 108.182 202.17 108.049C203.011 107.916 203.8 108.489 203.933 109.33Z" fill="#123544"/>
<path d="M209.443 108.457C209.577 109.298 209.003 110.087 208.164 110.22C207.323 110.353 206.532 109.78 206.399 108.939C206.266 108.098 206.84 107.309 207.681 107.176C208.521 107.043 209.31 107.616 209.443 108.457Z" fill="#123544"/>
<path d="M214.953 107.585C215.086 108.426 214.513 109.215 213.672 109.348C212.832 109.481 212.042 108.908 211.909 108.067C211.775 107.226 212.35 106.437 213.19 106.304C214.031 106.171 214.82 106.744 214.953 107.585Z" fill="#123544"/>
</g>
</g>
<defs>
<clipPath id="clip0_1970_608">
<rect width="300" height="300" fill="white"/>
</clipPath>
</defs>
</svg>
