<svg width="71" height="71" viewBox="0 0 71 71" fill="none" xmlns="http://www.w3.org/2000/svg">
<path d="M35.5 0C15.8939 0 0 15.8939 0 35.5C0 55.1061 15.8939 71 35.5 71C55.1061 71 71 55.1061 71 35.5C71 15.8939 55.1061 0 35.5 0ZM22.7422 14.1012C23.4736 14.0581 24.1347 14.4952 24.6359 15.2712L29.4894 24.4755C30.0005 25.5662 29.7101 26.734 28.9478 27.5133L26.7247 29.7364C26.5875 29.9244 26.4972 30.1362 26.495 30.3691C27.3475 33.6691 29.9336 36.7131 32.2153 38.8064C34.4969 40.8997 36.9492 43.7339 40.1325 44.4053C40.526 44.515 41.008 44.5544 41.2896 44.2927L43.8723 41.6623C44.7638 40.9865 46.0536 40.659 47.0054 41.2116H47.0487L55.8067 46.3815C57.0922 47.1872 57.2254 48.7448 56.305 49.6922L50.2729 55.6768C49.3821 56.5903 48.1986 56.8974 47.0489 56.8988C41.9636 56.7465 37.1587 54.2506 33.212 51.6856C26.7339 46.9728 20.7916 41.1276 17.061 34.0656C15.6302 31.1043 13.9495 27.3259 14.1099 24.0207C14.1242 22.7772 14.4606 21.559 15.3363 20.7576L21.3685 14.7253C21.8384 14.3255 22.3033 14.1271 22.7422 14.1012Z" fill="#0F253B"/>
</svg>
